<?xml version="1.0" encoding="utf-8"?>
<!-- Generator: Adobe Illustrator 19.0.0, SVG Export Plug-In . SVG Version: 6.00 Build 0)  -->
<svg version="1.1" xmlns="http://www.w3.org/2000/svg" xmlns:xlink="http://www.w3.org/1999/xlink" x="0px" y="0px"
	 viewBox="0 0 538.1 354.3" style="enable-background:new 0 0 538.1 354.3;" xml:space="preserve">
<style type="text/css">
	.st0{fill:#CB9966;}
	.st1{display:none;fill:#9AC3C3;}
	.st2{display:none;fill:#88BCB7;}
	.st3{display:none;fill:#AACECD;}
	.st4{display:none;fill:#FFFFFF;}
	.st5{font-family:'MyriadPro-Regular';}
	.st6{font-size:71.5529px;}
	.st7{fill:#9AC3C3;}
	.st8{fill:#A7D0D0;}
	.st9{fill:#A2CBCA;}
	.st10{fill:#AED6D3;}
	.st11{fill:#AACECD;}
	.st12{fill:#B5DBD9;}
	.st13{fill:#BEE4E1;}
	.st14{fill:#96BCBB;}
</style>
<g id="Layer_1">
	<g id="XMLID_55_">
		<path id="XMLID_56_" class="st0" d="M155.5,338.1l-1.7-4.5h-10.9l-1.8,4.5h-6.8l10.8-25.2h6.8l10.6,25.2H155.5z M144.9,328.5h7
			l-3.5-9L144.9,328.5z"/>
		<path id="XMLID_59_" class="st0" d="M164.8,312.8h6.6v19.6h10.7v5.6h-17.3V312.8z"/>
		<path id="XMLID_61_" class="st0" d="M185.1,312.8h6.6v25.2h-6.6V312.8z"/>
		<path id="XMLID_63_" class="st0" d="M211.9,318.9c-1.1-0.6-2.2-0.9-3.3-0.9c-1.3,0-2.4,0.3-3.5,1s-1.9,1.5-2.5,2.6
			c-0.6,1.1-0.9,2.4-0.9,3.7c0,1.4,0.3,2.6,0.9,3.7c0.6,1.1,1.4,2,2.5,2.6c1,0.6,2.2,1,3.5,1c1,0,2.1-0.3,3.2-0.8
			c1.1-0.5,2.1-1.2,3-2.2l3.9,4.1c-1.4,1.4-3,2.6-4.9,3.4c-1.9,0.9-3.8,1.3-5.6,1.3c-2.5,0-4.8-0.6-6.8-1.7s-3.6-2.7-4.8-4.7
			c-1.2-2-1.7-4.2-1.7-6.7c0-2.4,0.6-4.7,1.8-6.6s2.8-3.5,4.8-4.6c2.1-1.1,4.3-1.7,6.9-1.7c1.9,0,3.7,0.4,5.5,1.2
			c1.8,0.8,3.4,1.8,4.6,3.2l-3.8,4.6C214,320.4,213,319.5,211.9,318.9z"/>
		<path id="XMLID_65_" class="st0" d="M221.5,312.8h19.9v5.3h-13.3v4.7h12v5.2l-12,0v4.8h13.7v5.3h-20.3V312.8z"/>
		<path id="XMLID_67_" class="st0" d="M272.3,338.1l-1.7-4.5h-10.9l-1.8,4.5h-6.8l10.8-25.2h6.8l10.6,25.2H272.3z M261.7,328.5h7
			l-3.5-9L261.7,328.5z"/>
		<path id="XMLID_70_" class="st0" d="M297.6,325.2h5.7v10c-1.3,1-3,1.8-5,2.4s-3.8,0.9-5.6,0.9c-2.5,0-4.8-0.6-6.9-1.7
			c-2.1-1.1-3.7-2.7-4.8-4.7s-1.8-4.2-1.8-6.7c0-2.4,0.6-4.7,1.8-6.6c1.2-2,2.9-3.5,5-4.7c2.1-1.1,4.5-1.7,7.1-1.7
			c1.9,0,3.7,0.3,5.6,1c1.9,0.7,3.5,1.6,4.8,2.8l-3.7,4.6c-0.9-0.9-2-1.5-3.1-2.1c-1.2-0.5-2.4-0.8-3.5-0.8c-1.3,0-2.6,0.3-3.6,1
			s-1.9,1.5-2.6,2.7c-0.6,1.1-0.9,2.4-0.9,3.8c0,1.4,0.3,2.7,0.9,3.8c0.6,1.1,1.5,2,2.6,2.7c1.1,0.6,2.3,1,3.7,1
			c1.3,0,2.7-0.4,4.4-1.2V325.2z"/>
		<path id="XMLID_72_" class="st0" d="M307.7,312.8h19.9v5.3h-13.3v4.7h12v5.2l-12,0v4.8h13.7v5.3h-20.3V312.8z"/>
		<path id="XMLID_74_" class="st0" d="M349.2,312.8h6.1v25.2h-5.8L338.1,323v15.1H332v-25.2h5.8l11.5,15.2L349.2,312.8z"/>
		<path id="XMLID_76_" class="st0" d="M375.6,318.9c-1.1-0.6-2.2-0.9-3.3-0.9c-1.3,0-2.4,0.3-3.5,1s-1.9,1.5-2.5,2.6
			c-0.6,1.1-0.9,2.4-0.9,3.7c0,1.4,0.3,2.6,0.9,3.7c0.6,1.1,1.4,2,2.5,2.6c1,0.6,2.2,1,3.5,1c1,0,2.1-0.3,3.2-0.8
			c1.1-0.5,2.1-1.2,3-2.2l3.9,4.1c-1.4,1.4-3,2.6-4.9,3.4s-3.8,1.3-5.6,1.3c-2.5,0-4.8-0.6-6.8-1.7c-2-1.2-3.6-2.7-4.8-4.7
			c-1.2-2-1.7-4.2-1.7-6.7c0-2.4,0.6-4.7,1.8-6.6s2.8-3.5,4.8-4.6c2.1-1.1,4.4-1.7,6.9-1.7c1.9,0,3.7,0.4,5.5,1.2
			c1.8,0.8,3.4,1.8,4.6,3.2l-3.8,4.6C377.7,320.4,376.7,319.5,375.6,318.9z"/>
		<path id="XMLID_78_" class="st0" d="M407.5,312.8l-9.1,17.2v8.1h-6.6v-7.9l-9.3-17.4h6.6l6,10.8l5.8-10.8H407.5z"/>
	</g>
	<polyline id="XMLID_15_" class="st1" points="235.1,126.3 272.4,106.4 272.4,161 235.1,180.8 	"/>
	<polygon id="XMLID_10_" class="st2" points="272.4,161 309.7,180.8 309.7,126.3 272.4,106.4 	"/>
	<polyline id="XMLID_8_" class="st3" points="235.1,180.8 272.4,161 309.7,180.8 272.4,198.2 	"/>
	<text id="XMLID_7_" transform="matrix(1 0 0 1 250.8297 174.0748)" class="st4 st5 st6">A</text>
</g>
<g id="Layer_2">
	<g id="XMLID_13_">
		<polygon id="XMLID_19_" class="st7" points="269.3,266.1 269.3,172.1 249.2,172.1 		"/>
		<path id="XMLID_16_" class="st7" d="M151.4,68.2c0,0,117.4,91.6,117.4,97.1l0,99.8l-42-94L151.4,68.2z"/>
		<path id="XMLID_3_" class="st8" d="M386.1,69.2c0,0-117.4,91.6-117.4,97.1l0,99.8l42-94L386.1,69.2z"/>
		<g id="XMLID_4_">
			
				<image style="overflow:visible;opacity:0.8;" width="371" height="248" id="XMLID_28_" xlink:href="D6742F58.png"  transform="matrix(-0.24 0 0 0.24 348.5908 111.9473)">
			</image>
			<g id="XMLID_26_">
				<path id="XMLID_27_" class="st9" d="M273.6,161.4c0,0,4.6-2.4,11.3-6.2c1.7-1,3.5-2,5.4-3.1c1.9-1.1,3.9-2.3,6-3.5
					c2.1-1.2,4.2-2.5,6.4-3.8c2.2-1.3,4.4-2.6,6.6-3.9c4.4-2.7,8.8-5.3,12.9-7.8c4.1-2.5,8-4.8,11.2-6.8c1.7-1,3.2-1.9,4.5-2.7
					c1.4-0.8,2.5-1.4,3.5-2c2-1,3.1-1.6,3.1-1.6s-1.2,0.4-3.4,1.1c-1.1,0.4-2.3,0.9-3.8,1.5c-1.5,0.6-3.1,1.4-4.8,2.2
					c-3.5,1.7-7.5,3.7-11.8,6c-2.1,1.2-4.3,2.4-6.5,3.7c-2.2,1.3-4.4,2.6-6.6,3.9c-2.2,1.4-4.4,2.7-6.5,4c-2.2,1.3-4.2,2.7-6.3,4
					c-2,1.3-4,2.6-5.8,3.9c-1.8,1.2-3.6,2.4-5.1,3.5c-3.2,2.2-5.8,4.1-7.6,5.5C274.6,160.6,273.6,161.4,273.6,161.4z"/>
			</g>
		</g>
		<g id="XMLID_20_">
			
				<image style="overflow:visible;opacity:0.8;" width="371" height="248" id="XMLID_25_" xlink:href="D6742F59.png"  transform="matrix(0.24 0 0 0.24 186.6784 110.3421)">
			</image>
			<g id="XMLID_23_">
				<path id="XMLID_24_" class="st9" d="M261.6,159.8c0,0-4.6-2.4-11.3-6.2c-1.7-1-3.5-2-5.4-3.1c-1.9-1.1-3.9-2.3-6-3.5
					c-2.1-1.2-4.2-2.5-6.4-3.8c-2.2-1.3-4.4-2.6-6.6-3.9c-4.4-2.7-8.8-5.3-12.9-7.8c-4.1-2.5-8-4.8-11.2-6.8c-1.7-1-3.2-1.9-4.5-2.7
					c-1.4-0.8-2.5-1.4-3.5-2c-2-1-3.1-1.6-3.1-1.6s1.2,0.4,3.4,1.1c1.1,0.4,2.3,0.9,3.8,1.5c1.5,0.6,3.1,1.4,4.8,2.2
					c3.5,1.7,7.5,3.7,11.8,6c2.1,1.2,4.3,2.4,6.5,3.7c2.2,1.3,4.4,2.6,6.6,3.9c2.2,1.4,4.4,2.7,6.5,4c2.2,1.3,4.2,2.7,6.3,4
					c2,1.3,4,2.6,5.8,3.9c1.8,1.2,3.6,2.4,5.1,3.5c3.2,2.2,5.8,4.1,7.6,5.5C260.6,159,261.6,159.8,261.6,159.8z"/>
			</g>
		</g>
		<path id="XMLID_2_" class="st10" d="M0.6,0c0,0,4.9,1.3,13.3,3.8c4.2,1.2,9.3,2.8,15.2,4.7c5.8,1.9,12.4,4,19.5,6.5
			c7.1,2.5,14.8,5.2,22.9,8.3c8.1,3,16.6,6.4,25.4,10c8.7,3.6,17.8,7.4,26.8,11.6c9,4.1,18.2,8.5,27.2,13.1
			c9.1,4.6,18.1,9.2,26.9,14c8.8,4.8,17.4,9.8,25.3,15.2c7.9,5.4,15.3,11.2,21.9,17.2c3.3,2.9,6.4,5.9,9.4,8.9
			c1.5,1.5,2.9,3,4.3,4.4c1.4,1.5,2.7,2.9,4,4.4c5.2,5.8,9.5,11.5,13.1,16.8c1.8,2.6,3.3,5.2,4.7,7.5c1.3,2.4,2.6,4.6,3.6,6.6
			c0.5,1,1,2,1.4,2.9c0.4,0.9,0.8,1.8,1.1,2.6c0.3,0.8,0.7,1.6,0.9,2.2c0.3,0.7,0.5,1.3,0.7,1.9c0.8,2.3,1.2,3.5,1.2,3.5l-1.7,1
			c0,0-0.9-0.9-2.5-2.7c-0.8-0.9-1.8-1.9-3-3.1c-0.6-0.6-1.2-1.3-1.9-2c-0.7-0.7-1.4-1.4-2.2-2.2c-3.1-3.1-6.9-6.7-11.3-10.6
			c-4.5-4-9.6-8.3-15.3-12.8c-1.4-1.1-2.9-2.3-4.4-3.4c-1.5-1.1-3.1-2.3-4.6-3.5c-1.6-1.2-3.2-2.4-4.8-3.6c-1.6-1.2-3.3-2.4-5-3.6
			c-6.8-4.9-14.1-9.9-21.6-15.2c-7.5-5.3-15.2-10.8-23.2-16.4c-8-5.5-16.3-10.9-24.8-16c-8.5-5.1-17.2-9.9-25.8-14.6
			c-8.6-4.6-17.1-9.2-25.5-13.4c-8.3-4.3-16.5-8.2-24.2-11.9c-7.7-3.7-15.1-7.1-21.9-10.2c-6.8-3.1-13.1-5.9-18.7-8.3
			c-5.6-2.4-10.5-4.5-14.5-6.2C4.7,3.7,0,1.9,0,1.9L0.6,0z"/>
		<line id="XMLID_9_" class="st11" x1="268.8" y1="210.9" x2="227.8" y2="191.7"/>
		<path id="XMLID_6_" class="st7" d="M165.1,83.7"/>
		<line id="XMLID_17_" class="st7" x1="165.1" y1="83.7" x2="268.8" y2="165.3"/>
		<path id="XMLID_1_" class="st12" d="M538.1,2.1c0,0-4.7,1.8-12.7,5.2c-4,1.7-8.9,3.8-14.5,6.2c-5.6,2.4-11.9,5.2-18.7,8.3
			c-6.8,3.1-14.2,6.5-21.9,10.2c-7.7,3.7-15.9,7.7-24.2,11.9c-8.3,4.2-16.8,8.8-25.5,13.4C412,62.1,403.3,67,394.8,72
			c-8.5,5.1-16.8,10.4-24.8,16c-8,5.5-15.7,11.1-23.2,16.4c-7.5,5.3-14.8,10.3-21.6,15.2c-1.7,1.2-3.4,2.5-5,3.6
			c-1.6,1.2-3.2,2.4-4.8,3.6c-1.6,1.2-3.1,2.4-4.6,3.5c-1.5,1.2-3,2.3-4.4,3.4c-5.7,4.5-10.8,8.9-15.3,12.8
			c-4.5,4-8.3,7.6-11.3,10.6c-0.8,0.8-1.5,1.5-2.2,2.2c-0.7,0.7-1.3,1.4-1.9,2c-1.2,1.2-2.2,2.3-3,3.1c-1.6,1.7-2.5,2.7-2.5,2.7
			l-1.7-1c0,0,0.4-1.2,1.2-3.5c0.2-0.6,0.4-1.2,0.7-1.9c0.3-0.7,0.6-1.4,0.9-2.2c0.4-0.8,0.7-1.7,1.1-2.6c0.4-0.9,0.9-1.9,1.4-2.9
			c1-2.1,2.2-4.2,3.6-6.6c1.4-2.3,2.9-4.9,4.7-7.5c3.6-5.3,7.9-11,13.1-16.8c1.3-1.4,2.6-2.9,4-4.4c1.4-1.5,2.8-2.9,4.3-4.4
			c3-2.9,6.1-5.9,9.4-8.9c6.6-5.9,13.9-11.7,21.9-17.2c7.9-5.4,16.5-10.5,25.3-15.2c8.8-4.8,17.9-9.4,26.9-14
			c9-4.6,18.2-8.9,27.2-13.1c9-4.2,18.1-8,26.8-11.6c8.8-3.6,17.2-7,25.4-10c8.1-3,15.8-5.8,22.9-8.3c7.1-2.5,13.7-4.6,19.5-6.5
			c5.8-1.9,10.9-3.4,15.2-4.7c8.4-2.5,13.3-3.8,13.3-3.8L538.1,2.1z"/>
		<path id="XMLID_18_" class="st9" d="M26.6,55c0,0,1.1,0.1,3,0.4c2,0.3,4.9,0.7,8.5,1.2c3.7,0.5,8.1,1.3,13.2,2.1
			c2.5,0.5,5.3,0.9,8.1,1.4c2.9,0.5,5.8,1.1,9,1.7c6.2,1.3,13,2.6,20.1,4.3c1.8,0.4,3.6,0.8,5.4,1.2c1.8,0.4,3.7,0.9,5.5,1.4
			c3.7,0.9,7.5,1.8,11.4,2.9c3.9,1,7.8,2,11.8,3.1c4,1.1,8,2.3,12,3.5c4,1.3,8.1,2.5,12.1,3.8c2,0.6,4.1,1.3,6.1,2L159,86
			c2,0.7,4.1,1.3,6.1,2.1c2,0.7,4,1.5,6,2.2c4,1.4,8.1,2.8,12,4.4c2,0.8,4,1.5,5.9,2.3c1,0.4,2,0.7,2.9,1.1l1.5,0.6l1.4,0.6
			c1.9,0.8,3.7,1.6,5.6,2.5c1.9,0.9,3.8,1.8,5.6,2.7c7.2,3.7,14,7.8,20.2,12.2c3.1,2.1,6,4.4,8.8,6.5c1.4,1.1,2.7,2.2,4.1,3.3
			c1.3,1.1,2.6,2.2,3.8,3.3c4.9,4.4,9.1,8.8,12.6,12.9c3.5,4.1,6.2,8,8.3,11.2c2,3.3,3.5,5.9,4.3,7.8c0.9,1.9,1.3,2.9,1.3,2.9
			l-1.6,1.2c0,0-0.9-0.6-2.5-1.9c-1.6-1.2-3.9-3-6.9-5.1c-3-2.1-6.6-4.6-10.8-7.4c-4.2-2.8-9-5.6-14.3-8.7c-1.3-0.8-2.7-1.5-4.1-2.3
			c-1.4-0.8-2.8-1.6-4.3-2.4c-2.9-1.6-5.9-3.2-9-4.9c-6.2-3.3-12.8-6.7-19.6-10.2c-6.8-3.6-13.9-7.4-21-11.2c-3.6-2-7.3-3.8-11-5.6
			c-3.7-1.9-7.5-3.6-11.3-5.2l-5.7-2.5c-1.9-0.8-3.8-1.7-5.8-2.4c-3.9-1.6-7.7-3.1-11.5-4.7c-3.8-1.5-7.7-2.9-11.4-4.4
			c-3.8-1.5-7.5-2.8-11.2-4.2c-3.7-1.4-7.3-2.6-10.9-3.9c-3.6-1.3-7.1-2.5-10.5-3.6c-6.8-2.4-13.3-4.4-19.4-6.4
			c-3-0.9-5.9-1.9-8.7-2.7c-2.8-0.8-5.4-1.6-7.8-2.4c-4.9-1.4-9.2-2.7-12.8-3.7c-3.5-1-6.3-1.8-8.3-2.3c-1.9-0.5-2.9-0.8-2.9-0.8
			L26.6,55z"/>
		<path id="XMLID_11_" class="st13" d="M511.8,57.9c0,0-4.1,1.1-11.2,3.1c-7.1,2.1-17.2,5-29.3,8.9c-6,1.9-12.5,4-19.4,6.4
			c-3.4,1.2-6.9,2.4-10.5,3.6c-3.6,1.3-7.2,2.5-10.9,3.9c-3.7,1.4-7.4,2.7-11.2,4.2c-1.9,0.7-3.8,1.4-5.7,2.2
			c-1.9,0.7-3.8,1.5-5.7,2.2c-7.7,3-15.4,6.2-23,9.5c-1.9,0.8-3.8,1.7-5.7,2.6c-1.9,0.9-3.8,1.7-5.6,2.6c-3.7,1.9-7.4,3.7-11,5.6
			c-7.2,3.8-14.2,7.6-21,11.3c-1.7,0.9-3.4,1.8-5.1,2.6c-1.7,0.9-3.3,1.8-4.9,2.6c-1.6,0.9-3.3,1.7-4.9,2.5
			c-1.6,0.8-3.2,1.7-4.7,2.5c-1.6,0.8-3.1,1.6-4.6,2.4c-1.5,0.8-2.9,1.6-4.4,2.5c-1.4,0.8-2.9,1.5-4.3,2.3c-1.4,0.8-2.7,1.6-4,2.4
			c-1.3,0.8-2.6,1.5-3.9,2.2c-1.2,0.8-2.5,1.5-3.6,2.3c-2.4,1.5-4.7,2.8-6.8,4.2c-2.1,1.4-4.1,2.7-5.9,3.9c-1.8,1.3-3.4,2.5-4.9,3.5
			c-0.8,0.5-1.5,1-2.2,1.5c-0.6,0.5-1.2,1-1.8,1.4c-1.1,0.9-2.1,1.6-2.9,2.2c-1.6,1.2-2.5,1.8-2.5,1.8l-1.6-1.2c0,0,0.4-1,1.4-2.8
			c0.4-0.9,1-2.1,1.7-3.4c0.4-0.7,0.7-1.4,1.2-2.1c0.5-0.7,1-1.5,1.5-2.3c1-1.6,2.2-3.4,3.6-5.3c1.4-1.9,3-3.8,4.7-5.9
			c1.7-2.2,3.7-4.1,5.8-6.3c1.1-1.1,2.1-2.2,3.3-3.3c1.2-1.1,2.4-2.1,3.6-3.3c1.2-1.1,2.5-2.2,3.8-3.4c1.3-1.1,2.7-2.2,4.1-3.3
			c1.4-1.1,2.8-2.2,4.3-3.3c1.5-1.1,3-2.1,4.5-3.2c1.5-1.1,3.1-2.1,4.7-3.2c1.6-1,3.3-2.1,5-3.1c1.7-1,3.4-2.1,5.1-3
			c1.8-1,3.6-1.9,5.4-2.8c3.6-1.9,7.4-3.6,11.2-5.2c1-0.4,1.9-0.8,2.9-1.2c1-0.4,2-0.8,2.9-1.2c2-0.8,3.9-1.5,5.9-2.3
			c2-0.8,4-1.5,6-2.2c2-0.7,4-1.5,6-2.2c4.1-1.4,8.1-2.9,12.1-4.2c8.1-2.8,16.2-5.4,24.3-7.9c2-0.6,4-1.2,6-1.8c2-0.6,4-1.1,6-1.7
			c4-1.1,7.9-2.1,11.8-3.1c7.7-2,15.2-3.8,22.3-5.4c7.1-1.6,13.9-3,20.1-4.2c6.2-1.3,12-2.3,17.1-3.2c2.5-0.4,4.9-0.8,7.1-1.2
			c2.2-0.3,4.2-0.7,6.1-0.9c7.3-1.1,11.6-1.6,11.6-1.6L511.8,57.9z"/>
		<g id="XMLID_12_">
			
				<image style="overflow:visible;opacity:0.28;" width="202" height="202" id="XMLID_22_" xlink:href="D6742F5F.png"  transform="matrix(0.24 0 0 0.24 238.5508 141.7074)">
			</image>
			<g id="XMLID_14_">
				
					<rect id="XMLID_21_" x="262.2" y="156.4" transform="matrix(0.7071 0.7071 -0.7071 0.7071 193.9006 -142.3179)" class="st14" width="13" height="13"/>
			</g>
		</g>
	</g>
</g>
</svg>
