<?xml version="1.0" encoding="utf-8"?>
<!-- Generator: Adobe Illustrator 19.0.0, SVG Export Plug-In . SVG Version: 6.00 Build 0)  -->
<svg version="1.1" id="Layer_1" xmlns="http://www.w3.org/2000/svg" xmlns:xlink="http://www.w3.org/1999/xlink" x="0px" y="0px"
	 viewBox="-730 823.7 538.1 338.5" style="enable-background:new -730 823.7 538.1 338.5;" xml:space="preserve">
<style type="text/css">
	.st0{enable-background:new    ;}
	.st1{fill:#999999;}
	.st2{display:none;fill:#9AC3C3;}
	.st3{display:none;fill:#88BCB7;}
	.st4{display:none;fill:#AACECD;}
	.st5{display:none;fill:#FFFFFF;enable-background:new    ;}
	.st6{font-family:'MyriadSetPro-Text';}
	.st7{font-size:71.5529px;}
	.st8{fill:#9AC3C3;}
	.st9{fill:#0099CC;}
	.st10{fill:#29B0DF;}
	.st11{fill:#A2CBCA;}
	.st12{fill:#0497BF;}
	.st13{fill:#1DA6D5;}
	.st14{fill:#AACECD;}
	.st15{fill:none;}
	.st16{fill:#3DB3E7;}
	.st17{fill:#31A2DC;}
</style>
<g id="Layer_1_1_">
	<g class="st0">
		<path class="st1" d="M-574.5,1161.8l-1.7-4.5h-10.9l-1.8,4.5h-6.8l10.8-25.2h6.8l10.6,25.2H-574.5z M-585.1,1152.2h7l-3.5-9
			L-585.1,1152.2z"/>
		<path class="st1" d="M-565.2,1136.5h6.6v19.6h10.7v5.6h-17.3V1136.5z"/>
		<path class="st1" d="M-544.9,1136.5h6.6v25.2h-6.6V1136.5z"/>
		<path class="st1" d="M-518.1,1142.6c-1.1-0.6-2.2-0.9-3.3-0.9c-1.3,0-2.4,0.3-3.5,1s-1.9,1.5-2.5,2.6c-0.6,1.1-0.9,2.4-0.9,3.7
			s0.3,2.6,0.9,3.7c0.6,1.1,1.4,2,2.5,2.6s2.2,1,3.5,1c1,0,2.1-0.3,3.2-0.8c1.1-0.5,2.1-1.2,3-2.2l3.9,4.1c-1.4,1.4-3,2.6-4.9,3.4
			c-1.9,0.9-3.8,1.3-5.6,1.3c-2.5,0-4.8-0.6-6.8-1.7c-2-1.2-3.6-2.7-4.8-4.7c-1.2-2-1.7-4.2-1.7-6.7c0-2.4,0.6-4.7,1.8-6.6
			s2.8-3.5,4.8-4.6c2.1-1.1,4.3-1.7,6.9-1.7c1.9,0,3.7,0.4,5.5,1.2c1.8,0.8,3.4,1.8,4.6,3.2l-3.8,4.6
			C-516,1144.1-517,1143.2-518.1,1142.6z"/>
		<path class="st1" d="M-508.5,1136.5h19.9v5.3h-13.3v4.7h12v5.2l-12,0v4.8h13.7v5.3h-20.3V1136.5z"/>
		<path class="st1" d="M-457.7,1161.8l-1.7-4.5h-10.9l-1.8,4.5h-6.8l10.8-25.2h6.8l10.6,25.2H-457.7z M-468.3,1152.2h7l-3.5-9
			L-468.3,1152.2z"/>
		<path class="st1" d="M-432.4,1148.9h5.7v10c-1.3,1-3,1.8-4.9,2.4c-2,0.6-3.8,0.9-5.6,0.9c-2.5,0-4.8-0.6-6.9-1.7
			c-2.1-1.1-3.7-2.7-4.8-4.7c-1.2-2-1.8-4.2-1.8-6.7c0-2.4,0.6-4.7,1.8-6.6c1.2-2,2.9-3.5,5-4.7c2.1-1.1,4.5-1.7,7.1-1.7
			c1.9,0,3.7,0.3,5.6,1c1.9,0.7,3.5,1.6,4.8,2.8l-3.7,4.6c-0.9-0.9-2-1.5-3.1-2.1c-1.2-0.5-2.4-0.8-3.5-0.8c-1.3,0-2.6,0.3-3.6,1
			c-1.1,0.6-1.9,1.5-2.6,2.7s-0.9,2.4-0.9,3.8c0,1.4,0.3,2.7,0.9,3.8s1.5,2,2.6,2.7c1.1,0.6,2.3,1,3.7,1c1.3,0,2.7-0.4,4.4-1.2
			V1148.9z"/>
		<path class="st1" d="M-422.3,1136.5h19.9v5.3h-13.3v4.7h12v5.2l-12,0v4.8h13.7v5.3h-20.3V1136.5z"/>
		<path class="st1" d="M-380.8,1136.5h6.1v25.2h-5.8l-11.4-15.1v15.1h-6.2v-25.2h5.8l11.5,15.2L-380.8,1136.5z"/>
		<path class="st1" d="M-354.4,1142.6c-1.1-0.6-2.2-0.9-3.3-0.9c-1.3,0-2.4,0.3-3.5,1s-1.9,1.5-2.5,2.6c-0.6,1.1-0.9,2.4-0.9,3.7
			s0.3,2.6,0.9,3.7c0.6,1.1,1.4,2,2.5,2.6s2.2,1,3.5,1c1,0,2.1-0.3,3.2-0.8c1.1-0.5,2.1-1.2,3-2.2l3.9,4.1c-1.4,1.4-3,2.6-4.9,3.4
			c-1.9,0.9-3.8,1.3-5.6,1.3c-2.5,0-4.8-0.6-6.8-1.7c-2-1.2-3.6-2.7-4.8-4.7s-1.7-4.2-1.7-6.7c0-2.4,0.6-4.7,1.8-6.6
			s2.8-3.5,4.8-4.6c2.1-1.1,4.3-1.7,6.9-1.7c1.9,0,3.7,0.4,5.5,1.2c1.8,0.8,3.4,1.8,4.6,3.2l-3.8,4.6
			C-352.3,1144.1-353.3,1143.2-354.4,1142.6z"/>
		<path class="st1" d="M-322.5,1136.5l-9.1,17.2v8.1h-6.6v-7.9l-9.3-17.4h6.6l6,10.8l5.8-10.8H-322.5z"/>
	</g>
	<polyline id="XMLID_422_" class="st2" points="-494.9,950 -457.6,930.1 -457.6,984.7 -494.9,1004.5 	"/>
	<polygon id="XMLID_423_" class="st3" points="-457.6,984.7 -420.3,1004.5 -420.3,950 -457.6,930.1 	"/>
	<polyline id="XMLID_424_" class="st4" points="-494.9,1004.5 -457.6,984.7 -420.3,1004.5 -457.6,1021.9 	"/>
	<text id="XMLID_425_" transform="matrix(1 0 0 1 -479.1703 997.7748)" class="st5 st6 st7">A</text>
</g>
<g id="Layer_2">
	<g id="XMLID_426_">
		<polygon id="XMLID_427_" class="st8" points="-460.7,1089.8 -460.7,995.8 -480.8,995.8 		"/>
		<path id="XMLID_428_" class="st9" d="M-578.6,891.9c0,0,117.4,91.6,117.4,97.1v99.8l-42-94L-578.6,891.9z"/>
		<path id="XMLID_429_" class="st10" d="M-343.9,892.9c0,0-117.4,91.6-117.4,97.1v99.8l42-94L-343.9,892.9z"/>
		<g id="XMLID_430_">
			
				<image style="overflow:visible;opacity:0.8;enable-background:new    ;" width="371" height="248" id="XMLID_431_" xlink:href="CA1A851.png"  transform="matrix(-0.24 0 0 0.24 -381.4092 935.6473)">
			</image>
			<g id="XMLID_432_">
				<path id="XMLID_433_" class="st11" d="M-456.4,985.1c0,0,4.6-2.4,11.3-6.2c1.7-1,3.5-2,5.4-3.1c1.9-1.1,3.9-2.3,6-3.5
					c2.1-1.2,4.2-2.5,6.4-3.8c2.2-1.3,4.4-2.6,6.6-3.9c4.4-2.7,8.8-5.3,12.9-7.8s8-4.8,11.2-6.8c1.7-1,3.2-1.9,4.5-2.7
					c1.4-0.8,2.5-1.4,3.5-2c2-1,3.1-1.6,3.1-1.6s-1.2,0.4-3.4,1.1c-1.1,0.4-2.3,0.9-3.8,1.5c-1.5,0.6-3.1,1.4-4.8,2.2
					c-3.5,1.7-7.5,3.7-11.8,6c-2.1,1.2-4.3,2.4-6.5,3.7s-4.4,2.6-6.6,3.9c-2.2,1.4-4.4,2.7-6.5,4c-2.2,1.3-4.2,2.7-6.3,4
					c-2,1.3-4,2.6-5.8,3.9c-1.8,1.2-3.6,2.4-5.1,3.5c-3.2,2.2-5.8,4.1-7.6,5.5C-455.4,984.3-456.4,985.1-456.4,985.1z"/>
			</g>
		</g>
		<g id="XMLID_434_">
			
				<image style="overflow:visible;opacity:0.8;enable-background:new    ;" width="375" height="250" id="XMLID_435_" xlink:href="CA1A852.png"  transform="matrix(0.2376 0 0 0.2376 -543.3586 934.0975)">
			</image>
			<g id="XMLID_436_">
				<path id="XMLID_437_" class="st12" d="M-468.4,983.5c0,0-4.6-2.4-11.3-6.2c-1.7-1-3.5-2-5.4-3.1c-1.9-1.1-3.9-2.3-6-3.5
					c-2.1-1.2-4.2-2.5-6.4-3.8c-2.2-1.3-4.4-2.6-6.6-3.9c-4.4-2.7-8.8-5.3-12.9-7.8s-8-4.8-11.2-6.8c-1.7-1-3.2-1.9-4.5-2.7
					c-1.4-0.8-2.5-1.4-3.5-2c-2-1-3.1-1.6-3.1-1.6s1.2,0.4,3.4,1.1c1.1,0.4,2.3,0.9,3.8,1.5c1.5,0.6,3.1,1.4,4.8,2.2
					c3.5,1.7,7.5,3.7,11.8,6c2.1,1.2,4.3,2.4,6.5,3.7c2.2,1.3,4.4,2.6,6.6,3.9c2.2,1.4,4.4,2.7,6.5,4c2.2,1.3,4.2,2.7,6.3,4
					c2,1.3,4,2.6,5.8,3.9c1.8,1.2,3.6,2.4,5.1,3.5c3.2,2.2,5.8,4.1,7.6,5.5C-469.4,982.7-468.4,983.5-468.4,983.5z"/>
			</g>
		</g>
		<path id="XMLID_438_" class="st13" d="M-729.4,823.7c0,0,4.9,1.3,13.3,3.8c4.2,1.2,9.3,2.8,15.2,4.7c5.8,1.9,12.4,4,19.5,6.5
			c7.1,2.5,14.8,5.2,22.9,8.3c8.1,3,16.6,6.4,25.4,10c8.7,3.6,17.8,7.4,26.8,11.6c9,4.1,18.2,8.5,27.2,13.1
			c9.1,4.6,18.1,9.2,26.9,14s17.4,9.8,25.3,15.2s15.3,11.2,21.9,17.2c3.3,2.9,6.4,5.9,9.4,8.9c1.5,1.5,2.9,3,4.3,4.4
			c1.4,1.5,2.7,2.9,4,4.4c5.2,5.8,9.5,11.5,13.1,16.8c1.8,2.6,3.3,5.2,4.7,7.5c1.3,2.4,2.6,4.6,3.6,6.6c0.5,1,1,2,1.4,2.9
			c0.4,0.9,0.8,1.8,1.1,2.6c0.3,0.8,0.7,1.6,0.9,2.2c0.3,0.7,0.5,1.3,0.7,1.9c0.8,2.3,1.2,3.5,1.2,3.5l-1.7,1c0,0-0.9-0.9-2.5-2.7
			c-0.8-0.9-1.8-1.9-3-3.1c-0.6-0.6-1.2-1.3-1.9-2c-0.7-0.7-1.4-1.4-2.2-2.2c-3.1-3.1-6.9-6.7-11.3-10.6c-4.5-4-9.6-8.3-15.3-12.8
			c-1.4-1.1-2.9-2.3-4.4-3.4s-3.1-2.3-4.6-3.5c-1.6-1.2-3.2-2.4-4.8-3.6c-1.6-1.2-3.3-2.4-5-3.6c-6.8-4.9-14.1-9.9-21.6-15.2
			c-7.5-5.3-15.2-10.8-23.2-16.4c-8-5.5-16.3-10.9-24.8-16s-17.2-9.9-25.8-14.6c-8.6-4.6-17.1-9.2-25.5-13.4
			c-8.3-4.3-16.5-8.2-24.2-11.9c-7.7-3.7-15.1-7.1-21.9-10.2c-6.8-3.1-13.1-5.9-18.7-8.3c-5.6-2.4-10.5-4.5-14.5-6.2
			c-7.8-3.7-12.5-5.5-12.5-5.5L-729.4,823.7z"/>
		<path id="XMLID_450_" class="st14" d="M-502.2,1015.4"/>
		<path id="XMLID_449_" class="st14" d="M-461.2,1034.6"/>
		<path id="XMLID_440_" class="st8" d="M-564.9,907.4"/>
		<line id="XMLID_441_" class="st15" x1="-564.9" y1="907.4" x2="-461.2" y2="989"/>
		<path id="XMLID_442_" class="st13" d="M-191.9,825.8c0,0-4.7,1.8-12.7,5.2c-4,1.7-8.9,3.8-14.5,6.2c-5.6,2.4-11.9,5.2-18.7,8.3
			c-6.8,3.1-14.2,6.5-21.9,10.2c-7.7,3.7-15.9,7.7-24.2,11.9c-8.3,4.2-16.8,8.8-25.5,13.4c-8.6,4.8-17.3,9.7-25.8,14.7
			c-8.5,5.1-16.8,10.4-24.8,16c-8,5.5-15.7,11.1-23.2,16.4s-14.8,10.3-21.6,15.2c-1.7,1.2-3.4,2.5-5,3.6c-1.6,1.2-3.2,2.4-4.8,3.6
			c-1.6,1.2-3.1,2.4-4.6,3.5c-1.5,1.2-3,2.3-4.4,3.4c-5.7,4.5-10.8,8.9-15.3,12.8c-4.5,4-8.3,7.6-11.3,10.6
			c-0.8,0.8-1.5,1.5-2.2,2.2s-1.3,1.4-1.9,2c-1.2,1.2-2.2,2.3-3,3.1c-1.6,1.7-2.5,2.7-2.5,2.7l-1.7-1c0,0,0.4-1.2,1.2-3.5
			c0.2-0.6,0.4-1.2,0.7-1.9c0.3-0.7,0.6-1.4,0.9-2.2c0.4-0.8,0.7-1.7,1.1-2.6c0.4-0.9,0.9-1.9,1.4-2.9c1-2.1,2.2-4.2,3.6-6.6
			c1.4-2.3,2.9-4.9,4.7-7.5c3.6-5.3,7.9-11,13.1-16.8c1.3-1.4,2.6-2.9,4-4.4s2.8-2.9,4.3-4.4c3-2.9,6.1-5.9,9.4-8.9
			c6.6-5.9,13.9-11.7,21.9-17.2c7.9-5.4,16.5-10.5,25.3-15.2c8.8-4.8,17.9-9.4,26.9-14s18.2-8.9,27.2-13.1c9-4.2,18.1-8,26.8-11.6
			c8.8-3.6,17.2-7,25.4-10c8.1-3,15.8-5.8,22.9-8.3s13.7-4.6,19.5-6.5s10.9-3.4,15.2-4.7c8.4-2.5,13.3-3.8,13.3-3.8L-191.9,825.8z"
			/>
		<path id="XMLID_443_" class="st16" d="M-703.4,878.7c0,0,1.1,0.1,3,0.4c2,0.3,4.9,0.7,8.5,1.2c3.7,0.5,8.1,1.3,13.2,2.1
			c2.5,0.5,5.3,0.9,8.1,1.4c2.9,0.5,5.8,1.1,9,1.7c6.2,1.3,13,2.6,20.1,4.3c1.8,0.4,3.6,0.8,5.4,1.2c1.8,0.4,3.7,0.9,5.5,1.4
			c3.7,0.9,7.5,1.8,11.4,2.9c3.9,1,7.8,2,11.8,3.1s8,2.3,12,3.5c4,1.3,8.1,2.5,12.1,3.8c2,0.6,4.1,1.3,6.1,2l6.2,2
			c2,0.7,4.1,1.3,6.1,2.1c2,0.7,4,1.5,6,2.2c4,1.4,8.1,2.8,12,4.4c2,0.8,4,1.5,5.9,2.3c1,0.4,2,0.7,2.9,1.1l1.5,0.6l1.4,0.6
			c1.9,0.8,3.7,1.6,5.6,2.5c1.9,0.9,3.8,1.8,5.6,2.7c7.2,3.7,14,7.8,20.2,12.2c3.1,2.1,6,4.4,8.8,6.5c1.4,1.1,2.7,2.2,4.1,3.3
			c1.3,1.1,2.6,2.2,3.8,3.3c4.9,4.4,9.1,8.8,12.6,12.9c3.5,4.1,6.2,8,8.3,11.2c2,3.3,3.5,5.9,4.3,7.8c0.9,1.9,1.3,2.9,1.3,2.9
			l-1.6,1.2c0,0-0.9-0.6-2.5-1.9c-1.6-1.2-3.9-3-6.9-5.1c-3-2.1-6.6-4.6-10.8-7.4c-4.2-2.8-9-5.6-14.3-8.7c-1.3-0.8-2.7-1.5-4.1-2.3
			c-1.4-0.8-2.8-1.6-4.3-2.4c-2.9-1.6-5.9-3.2-9-4.9c-6.2-3.3-12.8-6.7-19.6-10.2c-6.8-3.6-13.9-7.4-21-11.2c-3.6-2-7.3-3.8-11-5.6
			c-3.7-1.9-7.5-3.6-11.3-5.2l-5.7-2.5c-1.9-0.8-3.8-1.7-5.8-2.4c-3.9-1.6-7.7-3.1-11.5-4.7c-3.8-1.5-7.7-2.9-11.4-4.4
			c-3.8-1.5-7.5-2.8-11.2-4.2s-7.3-2.6-10.9-3.9c-3.6-1.3-7.1-2.5-10.5-3.6c-6.8-2.4-13.3-4.4-19.4-6.4c-3-0.9-5.9-1.9-8.7-2.7
			c-2.8-0.8-5.4-1.6-7.8-2.4c-4.9-1.4-9.2-2.7-12.8-3.7c-3.5-1-6.3-1.8-8.3-2.3c-1.9-0.5-2.9-0.8-2.9-0.8L-703.4,878.7z"/>
		<path id="XMLID_444_" class="st16" d="M-218.2,881.6c0,0-4.1,1.1-11.2,3.1c-7.1,2.1-17.2,5-29.3,8.9c-6,1.9-12.5,4-19.4,6.4
			c-3.4,1.2-6.9,2.4-10.5,3.6c-3.6,1.3-7.2,2.5-10.9,3.9c-3.7,1.4-7.4,2.7-11.2,4.2c-1.9,0.7-3.8,1.4-5.7,2.2
			c-1.9,0.7-3.8,1.5-5.7,2.2c-7.7,3-15.4,6.2-23,9.5c-1.9,0.8-3.8,1.7-5.7,2.6c-1.9,0.9-3.8,1.7-5.6,2.6c-3.7,1.9-7.4,3.7-11,5.6
			c-7.2,3.8-14.2,7.6-21,11.3c-1.7,0.9-3.4,1.8-5.1,2.6c-1.7,0.9-3.3,1.8-4.9,2.6c-1.6,0.9-3.3,1.7-4.9,2.5s-3.2,1.7-4.7,2.5
			c-1.6,0.8-3.1,1.6-4.6,2.4c-1.5,0.8-2.9,1.6-4.4,2.5c-1.4,0.8-2.9,1.5-4.3,2.3c-1.4,0.8-2.7,1.6-4,2.4s-2.6,1.5-3.9,2.2
			c-1.2,0.8-2.5,1.5-3.6,2.3c-2.4,1.5-4.7,2.8-6.8,4.2c-2.1,1.4-4.1,2.7-5.9,3.9c-1.8,1.3-3.4,2.5-4.9,3.5c-0.8,0.5-1.5,1-2.2,1.5
			c-0.6,0.5-1.2,1-1.8,1.4c-1.1,0.9-2.1,1.6-2.9,2.2c-1.6,1.2-2.5,1.8-2.5,1.8l-1.6-1.2c0,0,0.4-1,1.4-2.8c0.4-0.9,1-2.1,1.7-3.4
			c0.4-0.7,0.7-1.4,1.2-2.1s1-1.5,1.5-2.3c1-1.6,2.2-3.4,3.6-5.3c1.4-1.9,3-3.8,4.7-5.9c1.7-2.2,3.7-4.1,5.8-6.3
			c1.1-1.1,2.1-2.2,3.3-3.3c1.2-1.1,2.4-2.1,3.6-3.3c1.2-1.1,2.5-2.2,3.8-3.4c1.3-1.1,2.7-2.2,4.1-3.3c1.4-1.1,2.8-2.2,4.3-3.3
			c1.5-1.1,3-2.1,4.5-3.2c1.5-1.1,3.1-2.1,4.7-3.2c1.6-1,3.3-2.1,5-3.1s3.4-2.1,5.1-3c1.8-1,3.6-1.9,5.4-2.8
			c3.6-1.9,7.4-3.6,11.2-5.2c1-0.4,1.9-0.8,2.9-1.2c1-0.4,2-0.8,2.9-1.2c2-0.8,3.9-1.5,5.9-2.3c2-0.8,4-1.5,6-2.2c2-0.7,4-1.5,6-2.2
			c4.1-1.4,8.1-2.9,12.1-4.2c8.1-2.8,16.2-5.4,24.3-7.9c2-0.6,4-1.2,6-1.8c2-0.6,4-1.1,6-1.7c4-1.1,7.9-2.1,11.8-3.1
			c7.7-2,15.2-3.8,22.3-5.4c7.1-1.6,13.9-3,20.1-4.2c6.2-1.3,12-2.3,17.1-3.2c2.5-0.4,4.9-0.8,7.1-1.2c2.2-0.3,4.2-0.7,6.1-0.9
			c7.3-1.1,11.6-1.6,11.6-1.6L-218.2,881.6z"/>
		<g id="XMLID_445_">
			
				<image style="overflow:visible;opacity:0.28;enable-background:new    ;" width="208" height="208" id="XMLID_446_" xlink:href="CA1A850.png"  transform="matrix(0.2331 0 0 0.2331 -491.4492 965.4074)">
			</image>
			<g id="XMLID_447_">
				
					<rect id="XMLID_448_" x="-467.8" y="980.1" transform="matrix(-0.7071 -0.7071 0.7071 -0.7071 -1485.076 1357.9943)" class="st17" width="13" height="13"/>
			</g>
		</g>
	</g>
</g>
</svg>
