<?xml version="1.0" encoding="iso-8859-1"?>
<!-- Generator: Adobe Illustrator 16.0.0, SVG Export Plug-In . SVG Version: 6.00 Build 0)  -->
<!DOCTYPE svg PUBLIC "-//W3C//DTD SVG 1.1//EN" "http://www.w3.org/Graphics/SVG/1.1/DTD/svg11.dtd">
<svg width="512px" height="512px" enable-background="new 0 0 568.707 568.707" version="1.1" viewBox="0 0 568.71 568.71" xml:space="preserve" xmlns="http://www.w3.org/2000/svg">
		<path d="m427.08 38.124c-43.568-25.41-91.145-38.121-142.73-38.121-51.591 0-99.168 12.711-142.73 38.121-43.569 25.441-78.068 59.934-103.49 103.5-25.429 43.562-38.134 91.145-38.134 142.72 0 51.604 12.711 99.174 38.134 142.74 25.422 43.574 59.915 78.072 103.49 103.48 43.562 25.428 91.139 38.14 142.73 38.14 51.586 0 99.162-12.712 142.73-38.14 43.562-25.411 78.061-59.909 103.49-103.48 25.423-43.562 38.134-91.133 38.134-142.74 0-51.574-12.717-99.157-38.134-142.72-25.427-43.557-59.926-78.055-103.49-103.5zm-2.222 199.58c-2.099 9.143-5.128 16.414-9.069 21.842l-129.59 175.13-129.22-175.14c-3.954-5.422-6.977-12.699-9.07-21.842-2.099-9.125-1.359-19.626 2.221-31.469 3.574-11.849 11.047-21.591 22.399-29.26 10.116-6.408 20.49-9.547 31.102-9.431 10.606 0.117 19.682 2.283 27.216 6.481 7.528 4.192 14.253 9.749 20.178 16.659 8.886 9.877 20.606 14.81 35.171 14.81 14.812 0 26.659-4.933 35.546-14.81 5.924-6.916 12.644-12.467 20.178-16.659 7.527-4.192 16.597-6.365 27.215-6.481 10.612-0.116 20.857 3.023 30.735 9.431 11.597 7.668 19.186 17.411 22.772 29.26 3.575 11.848 4.315 22.35 2.215 31.475z" fill="#d7d7d7"/>
</svg>
